<?xml version="1.0" standalone="no"?>
<!DOCTYPE svg PUBLIC "-//W3C//DTD SVG 20010904//EN"
 "http://www.w3.org/TR/2001/REC-SVG-20010904/DTD/svg10.dtd">
<svg version="1.0" xmlns="http://www.w3.org/2000/svg"
 width="400.000000pt" height="400.000000pt" viewBox="0 0 400.000000 400.000000"
 preserveAspectRatio="xMidYMid meet">
<metadata>
Created by potrace 1.11, written by Peter Selinger 2001-2013
</metadata>
<g transform="translate(0.000000,400.000000) scale(0.100000,-0.100000)"
fill="#000000" stroke="none">
<path d="M2533 2505 c-67 -18 -94 -35 -59 -35 33 0 46 -41 46 -143 l0 -99 -32
31 c-48 47 -105 65 -188 59 -91 -7 -153 -38 -202 -103 -92 -122 -86 -286 16
-393 46 -49 101 -74 176 -80 84 -6 136 9 187 53 l41 35 19 -37 c18 -37 19 -38
82 -41 l64 -3 -31 29 c-18 17 -33 32 -34 34 -1 1 -4 163 -7 358 l-6 355 -72
-20z m-141 -225 c77 -22 128 -122 128 -250 0 -171 -82 -273 -206 -256 -62 8
-96 28 -127 75 -36 54 -51 129 -44 216 6 86 23 130 68 173 49 48 109 62 181
42z"/>
<path d="M2777 2452 c-10 -4 -24 -19 -31 -34 -12 -23 -12 -28 3 -42 60 -54
191 -5 143 54 -18 23 -83 35 -115 22z"/>
<path d="M610 2300 c-68 -24 -140 -97 -164 -166 -34 -100 -10 -236 54 -302 55
-58 115 -85 200 -90 88 -5 130 6 189 48 44 32 84 99 72 119 -6 9 -19 -3 -45
-37 -42 -58 -102 -92 -163 -92 -122 0 -199 82 -210 224 -10 129 25 221 101
267 38 23 134 26 175 4 38 -19 78 -68 86 -105 10 -44 22 -37 41 24 22 69 15
79 -73 106 -84 26 -189 26 -263 0z"/>
<path d="M1185 2300 c-71 -28 -119 -71 -152 -138 -38 -76 -39 -182 -3 -257 56
-115 156 -170 295 -163 97 5 158 30 211 86 52 55 73 112 73 198 1 91 -20 151
-72 206 -79 84 -234 113 -352 68z m210 -23 c36 -18 83 -79 97 -126 7 -25 13
-85 12 -133 0 -71 -5 -95 -25 -134 -52 -101 -146 -137 -245 -95 -87 38 -134
150 -120 290 13 125 63 193 156 212 39 7 95 2 125 -14z"/>
<path d="M3105 2302 c-92 -27 -94 -29 -67 -95 7 -16 12 -33 12 -38 0 -21 16
-6 35 34 30 62 87 89 182 85 64 -3 76 -7 103 -33 30 -29 50 -78 50 -126 0 -26
-1 -26 -97 -32 -143 -10 -232 -38 -291 -92 -18 -17 -26 -37 -30 -74 -6 -67 2
-95 41 -131 50 -47 104 -63 189 -58 79 5 120 22 165 66 l29 29 18 -43 18 -44
59 0 c32 0 59 2 59 5 0 3 -12 17 -27 30 l-28 23 -6 184 c-4 100 -10 192 -14
203 -17 40 -51 77 -90 98 -56 29 -224 34 -310 9z m316 -244 c3 -54 -5 -145
-15 -176 -7 -20 -29 -50 -50 -66 -49 -40 -143 -48 -194 -16 -90 56 -72 184 32
234 64 30 225 47 227 24z"/>
<path d="M1718 2292 c-61 -17 -71 -27 -37 -37 11 -4 24 -17 29 -30 5 -13 8
-108 7 -212 -2 -165 -4 -191 -21 -215 -10 -16 -25 -28 -32 -28 -8 0 -14 -4
-14 -10 0 -6 43 -10 110 -10 61 0 110 2 110 4 0 3 -13 18 -30 34 l-30 30 0
139 c0 156 10 203 47 233 27 21 77 27 88 10 13 -22 31 -8 42 33 7 23 15 50 18
60 6 14 1 17 -31 17 -59 0 -120 -43 -161 -114 -11 -18 -12 -11 -13 47 0 75 4
72 -82 49z"/>
<path d="M2803 2291 c-74 -20 -84 -27 -51 -40 14 -5 28 -17 32 -26 10 -27 7
-357 -4 -395 -5 -19 -22 -44 -37 -57 l-28 -22 118 -1 c64 0 117 2 117 4 0 3
-13 17 -29 33 -27 27 -29 37 -36 129 -4 54 -5 165 -3 246 4 107 3 148 -6 147
-6 -1 -39 -9 -73 -18z"/>
<path d="M1712 1568 c-18 -18 -14 -52 8 -66 11 -7 20 -17 20 -23 0 -6 -9 -9
-20 -6 -13 3 -20 0 -20 -9 0 -19 44 -18 60 1 11 14 14 13 25 -1 19 -26 65 -11
65 21 0 18 -5 25 -20 25 -11 0 -20 -4 -20 -10 0 -5 5 -10 10 -10 6 0 10 -4 10
-10 0 -5 -7 -10 -16 -10 -12 0 -14 9 -12 38 2 27 8 37 20 37 29 0 32 14 4 21
-27 7 -57 -10 -55 -30 1 -6 1 -20 0 -31 -1 -18 -2 -19 -12 -2 -5 9 -17 17 -24
17 -8 0 -15 7 -15 16 0 11 6 14 20 9 25 -8 26 11 2 24 -13 7 -23 6 -30 -1z"/>
<path d="M430 1510 l0 -61 33 3 c32 3 32 3 32 58 0 55 0 55 -32 58 l-33 3 0
-61z m52 12 c5 -37 0 -52 -18 -52 -9 0 -14 11 -14 33 0 53 25 67 32 19z"/>
<path d="M516 1562 c-3 -5 -4 -33 -4 -63 l2 -55 33 4 c35 4 46 22 13 22 -11 0
-20 7 -20 15 0 8 7 15 15 15 8 0 15 5 15 10 0 6 -7 10 -15 10 -8 0 -15 7 -15
15 0 8 9 15 20 15 11 0 20 5 20 10 0 12 -57 14 -64 2z"/>
<path d="M600 1510 l0 -60 30 0 c17 0 30 5 30 10 0 6 -9 10 -20 10 -17 0 -20
7 -20 50 0 28 -4 50 -10 50 -6 0 -10 -27 -10 -60z"/>
<path d="M670 1510 c0 -33 4 -60 10 -60 6 0 10 27 10 60 0 33 -4 60 -10 60 -6
0 -10 -27 -10 -60z"/>
<path d="M700 1558 c0 -25 27 -102 37 -105 8 -3 43 88 43 111 0 20 -26 -4 -31
-30 l-6 -29 -14 33 c-13 32 -29 43 -29 20z"/>
<path d="M786 1536 c-11 -57 1 -86 35 -86 16 0 29 5 29 10 0 6 -9 10 -19 10
-31 0 -34 28 -3 33 26 4 26 4 5 12 -28 9 -30 35 -3 35 11 0 20 5 20 10 0 6
-13 10 -29 10 -25 0 -30 -5 -35 -34z"/>
<path d="M870 1509 c0 -37 4 -58 10 -54 6 3 10 15 10 26 0 27 17 24 24 -5 4
-17 13 -23 31 -23 24 0 25 2 25 58 0 59 -6 69 -27 48 -8 -8 -13 -8 -17 0 -4 6
-18 11 -32 11 -23 0 -24 -3 -24 -61z m48 23 c2 -7 -3 -12 -12 -12 -9 0 -16 7
-16 16 0 17 22 14 28 -4z m32 -48 c0 -8 -4 -14 -9 -14 -6 0 -9 9 -8 19 1 22
17 18 17 -5z"/>
<path d="M980 1510 c0 -33 4 -60 10 -60 10 0 14 13 11 43 -3 26 7 21 24 -13
24 -46 35 -36 35 30 0 33 -4 60 -10 60 -5 0 -10 -17 -10 -37 l-1 -38 -20 38
c-11 20 -24 37 -29 37 -6 0 -10 -27 -10 -60z"/>
<path d="M1081 1556 c-7 -8 -11 -34 -9 -58 3 -40 5 -43 33 -43 25 0 30 4 33
28 2 19 -1 27 -12 27 -8 0 -18 -4 -21 -10 -3 -5 -1 -10 4 -10 6 0 11 -4 11
-10 0 -5 -7 -10 -16 -10 -12 0 -14 9 -12 38 3 32 6 37 26 34 15 -1 22 2 20 10
-6 19 -43 21 -57 4z"/>
<path d="M1189 1533 c-5 -49 0 -83 12 -83 5 0 9 11 9 24 0 18 7 26 23 29 l22
4 -22 8 c-28 9 -30 25 -3 32 30 8 24 23 -9 23 -26 0 -29 -4 -32 -37z"/>
<path d="M1260 1550 c-13 -11 -18 -20 -12 -20 6 0 12 -17 14 -37 3 -35 6 -38
33 -38 29 0 30 2 33 49 4 67 -23 85 -68 46z m50 -46 c0 -24 -5 -34 -15 -34
-10 0 -15 10 -15 33 0 19 3 37 6 40 13 13 24 -5 24 -39z"/>
<path d="M1347 1563 c-10 -10 -8 -113 2 -113 12 0 23 29 15 41 -3 5 0 9 6 9 6
0 15 -11 20 -25 13 -33 24 -32 17 2 -3 15 0 34 6 44 8 13 7 21 -2 33 -14 16
-52 22 -64 9z m53 -34 c0 -11 -27 -12 -34 0 -3 4 -3 11 0 14 8 8 34 -3 34 -14z"/>
<path d="M1463 1553 c-5 -10 -6 -36 -3 -58 5 -37 8 -40 35 -40 25 0 30 4 33
28 3 22 -1 27 -17 27 -23 0 -29 -16 -8 -23 6 -2 9 -8 4 -12 -13 -15 -29 11
-25 41 2 24 7 29 26 26 15 -1 22 2 20 10 -7 21 -55 22 -65 1z"/>
<path d="M1540 1510 l0 -60 30 0 c17 0 30 5 30 10 0 6 -9 10 -20 10 -17 0 -20
7 -20 50 0 28 -4 50 -10 50 -6 0 -10 -27 -10 -60z"/>
<path d="M1625 1514 c-9 -31 -14 -58 -12 -61 3 -2 15 2 26 9 18 11 23 11 31
-2 5 -8 12 -12 15 -8 8 8 -24 118 -35 118 -5 0 -16 -25 -25 -56z"/>
<path d="M1864 1556 c-3 -7 -4 -33 -2 -57 3 -41 5 -44 33 -44 29 0 30 2 34 50
l4 50 11 -49 c14 -57 30 -69 41 -29 l7 28 10 -27 c5 -16 13 -28 18 -28 11 0
34 109 25 118 -8 9 -25 -18 -25 -43 -1 -14 -5 -10 -17 15 -10 23 -17 30 -20
20 -13 -42 -16 -45 -22 -21 -5 19 -14 24 -49 27 -30 3 -44 0 -48 -10z m46 -52
c0 -24 -5 -34 -15 -34 -10 0 -15 10 -15 33 0 19 3 37 6 40 13 13 24 -5 24 -39z"/>
</g>
</svg>
